<mxfile host="app.diagrams.net" modified="2021-06-23T01:41:34.884Z" agent="5.0 (Windows NT 10.0; Win64; x64) AppleWebKit/537.36 (KHTML, like Gecko) Chrome/91.0.4472.106 Safari/537.36" etag="w_VQns3lc6ACef4LfsPN" version="14.8.0" type="github">
  <diagram id="D_QNvN3IUHGej_ArT2CF" name="Page-1">
    <mxGraphModel dx="2378" dy="547" grid="1" gridSize="10" guides="1" tooltips="1" connect="1" arrows="1" fold="1" page="1" pageScale="1" pageWidth="1100" pageHeight="850" math="0" shadow="0">
      <root>
        <mxCell id="0" />
        <mxCell id="1" parent="0" />
        <mxCell id="hHnId6ll3xfoVTae1dIA-2" value="" style="pointerEvents=1;shadow=0;dashed=0;html=1;strokeColor=none;fillColor=#4495D1;labelPosition=center;verticalLabelPosition=bottom;verticalAlign=top;align=center;outlineConnect=0;shape=mxgraph.veeam.2d.workstation;" parent="1" vertex="1">
          <mxGeometry x="-861.8199999999999" y="410" width="190" height="150" as="geometry" />
        </mxCell>
        <mxCell id="hHnId6ll3xfoVTae1dIA-3" value="" style="aspect=fixed;perimeter=ellipsePerimeter;html=1;align=center;shadow=0;dashed=0;spacingTop=3;image;image=img/lib/active_directory/internet_cloud.svg;" parent="1" vertex="1">
          <mxGeometry x="-870" y="200" width="206.36" height="130" as="geometry" />
        </mxCell>
        <mxCell id="hHnId6ll3xfoVTae1dIA-4" value="" style="whiteSpace=wrap;html=1;aspect=fixed;" parent="1" vertex="1">
          <mxGeometry x="-580" y="60" width="680" height="680" as="geometry" />
        </mxCell>
        <mxCell id="hHnId6ll3xfoVTae1dIA-6" value="Azure Resource Group" style="text;html=1;strokeColor=none;fillColor=none;align=center;verticalAlign=middle;whiteSpace=wrap;rounded=0;" parent="1" vertex="1">
          <mxGeometry x="-334.25" y="40" width="200" height="20" as="geometry" />
        </mxCell>
        <mxCell id="hHnId6ll3xfoVTae1dIA-7" value="Vitual Network 10.0.0.0/16" style="text;html=1;strokeColor=none;fillColor=none;align=center;verticalAlign=middle;whiteSpace=wrap;rounded=0;" parent="1" vertex="1">
          <mxGeometry x="-311.75" y="80" width="160" height="20" as="geometry" />
        </mxCell>
        <mxCell id="hHnId6ll3xfoVTae1dIA-13" value="" style="endArrow=none;html=1;" parent="1" source="hHnId6ll3xfoVTae1dIA-2" target="hHnId6ll3xfoVTae1dIA-3" edge="1">
          <mxGeometry width="50" height="50" relative="1" as="geometry">
            <mxPoint x="-820" y="490" as="sourcePoint" />
            <mxPoint x="-770" y="440" as="targetPoint" />
          </mxGeometry>
        </mxCell>
        <mxCell id="hHnId6ll3xfoVTae1dIA-51" style="edgeStyle=none;shape=link;rounded=0;orthogonalLoop=1;jettySize=auto;html=1;exitX=0.1;exitY=1;exitDx=0;exitDy=0;exitPerimeter=0;width=1;" parent="1" source="hHnId6ll3xfoVTae1dIA-18" target="hHnId6ll3xfoVTae1dIA-21" edge="1">
          <mxGeometry relative="1" as="geometry">
            <mxPoint x="-240" y="360" as="targetPoint" />
            <Array as="points" />
          </mxGeometry>
        </mxCell>
        <mxCell id="hHnId6ll3xfoVTae1dIA-52" style="edgeStyle=none;shape=link;rounded=0;orthogonalLoop=1;jettySize=auto;html=1;exitX=0.9;exitY=1;exitDx=0;exitDy=0;exitPerimeter=0;width=1;" parent="1" source="hHnId6ll3xfoVTae1dIA-18" target="hHnId6ll3xfoVTae1dIA-25" edge="1">
          <mxGeometry relative="1" as="geometry">
            <mxPoint x="-119" y="370" as="targetPoint" />
          </mxGeometry>
        </mxCell>
        <mxCell id="hHnId6ll3xfoVTae1dIA-18" value="" style="fontColor=#0066CC;verticalAlign=top;verticalLabelPosition=bottom;labelPosition=center;align=center;html=1;outlineConnect=0;fillColor=#CCCCCC;strokeColor=#6881B3;gradientColor=none;gradientDirection=north;strokeWidth=2;shape=mxgraph.networks.load_balancer;" parent="1" vertex="1">
          <mxGeometry x="-240" y="290" width="106.5" height="30" as="geometry" />
        </mxCell>
        <mxCell id="hHnId6ll3xfoVTae1dIA-20" value="" style="pointerEvents=1;shadow=0;dashed=0;html=1;strokeColor=none;labelPosition=center;verticalLabelPosition=bottom;verticalAlign=top;outlineConnect=0;align=center;shape=mxgraph.office.servers.server_generic;fillColor=#CCCBCB;" parent="1" vertex="1">
          <mxGeometry x="-445" y="380" width="70" height="112" as="geometry" />
        </mxCell>
        <mxCell id="hHnId6ll3xfoVTae1dIA-21" value="" style="pointerEvents=1;shadow=0;dashed=0;html=1;strokeColor=none;labelPosition=center;verticalLabelPosition=bottom;verticalAlign=top;outlineConnect=0;align=center;shape=mxgraph.office.servers.server_generic;fillColor=#CCCBCB;" parent="1" vertex="1">
          <mxGeometry x="-273.5" y="380" width="43.5" height="82" as="geometry" />
        </mxCell>
        <mxCell id="hHnId6ll3xfoVTae1dIA-24" value="" style="pointerEvents=1;shadow=0;dashed=0;html=1;strokeColor=none;labelPosition=center;verticalLabelPosition=bottom;verticalAlign=top;outlineConnect=0;align=center;shape=mxgraph.office.servers.server_generic;fillColor=#CCCBCB;" parent="1" vertex="1">
          <mxGeometry x="-200" y="380" width="43.5" height="82" as="geometry" />
        </mxCell>
        <mxCell id="hHnId6ll3xfoVTae1dIA-25" value="" style="pointerEvents=1;shadow=0;dashed=0;html=1;strokeColor=none;labelPosition=center;verticalLabelPosition=bottom;verticalAlign=top;outlineConnect=0;align=center;shape=mxgraph.office.servers.server_generic;fillColor=#CCCBCB;" parent="1" vertex="1">
          <mxGeometry x="-123.5" y="380" width="43.5" height="82" as="geometry" />
        </mxCell>
        <mxCell id="hHnId6ll3xfoVTae1dIA-27" value="" style="endArrow=none;html=1;" parent="1" source="hHnId6ll3xfoVTae1dIA-20" target="hHnId6ll3xfoVTae1dIA-14" edge="1">
          <mxGeometry width="50" height="50" relative="1" as="geometry">
            <mxPoint x="-660" y="390" as="sourcePoint" />
            <mxPoint x="-610" y="340" as="targetPoint" />
          </mxGeometry>
        </mxCell>
        <mxCell id="hHnId6ll3xfoVTae1dIA-31" value="" style="endArrow=none;html=1;entryX=0.5;entryY=1;entryDx=0;entryDy=0;" parent="1" source="hHnId6ll3xfoVTae1dIA-20" target="hHnId6ll3xfoVTae1dIA-74" edge="1">
          <mxGeometry width="50" height="50" relative="1" as="geometry">
            <mxPoint x="-660" y="390" as="sourcePoint" />
            <mxPoint x="-610" y="340" as="targetPoint" />
            <Array as="points">
              <mxPoint x="-410" y="520" />
              <mxPoint x="-220" y="520" />
              <mxPoint x="-100" y="520" />
            </Array>
          </mxGeometry>
        </mxCell>
        <mxCell id="hHnId6ll3xfoVTae1dIA-32" value="" style="endArrow=none;html=1;" parent="1" edge="1">
          <mxGeometry width="50" height="50" relative="1" as="geometry">
            <mxPoint x="-252" y="520" as="sourcePoint" />
            <mxPoint x="-252" y="480" as="targetPoint" />
          </mxGeometry>
        </mxCell>
        <mxCell id="hHnId6ll3xfoVTae1dIA-35" value="" style="endArrow=none;html=1;startArrow=none;" parent="1" source="hHnId6ll3xfoVTae1dIA-65" edge="1">
          <mxGeometry width="50" height="50" relative="1" as="geometry">
            <mxPoint x="-172" y="590" as="sourcePoint" />
            <mxPoint x="-173" y="462" as="targetPoint" />
          </mxGeometry>
        </mxCell>
        <mxCell id="hHnId6ll3xfoVTae1dIA-37" value="" style="endArrow=none;html=1;entryX=0.98;entryY=0.83;entryDx=0;entryDy=0;entryPerimeter=0;" parent="1" target="hHnId6ll3xfoVTae1dIA-14" edge="1">
          <mxGeometry width="50" height="50" relative="1" as="geometry">
            <mxPoint x="-240" y="313" as="sourcePoint" />
            <mxPoint x="-350" y="297" as="targetPoint" />
            <Array as="points" />
          </mxGeometry>
        </mxCell>
        <mxCell id="hHnId6ll3xfoVTae1dIA-47" style="edgeStyle=none;shape=link;rounded=0;orthogonalLoop=1;jettySize=auto;html=1;exitX=0.5;exitY=1;exitDx=0;exitDy=0;exitPerimeter=0;" parent="1" source="hHnId6ll3xfoVTae1dIA-18" target="hHnId6ll3xfoVTae1dIA-18" edge="1">
          <mxGeometry relative="1" as="geometry" />
        </mxCell>
        <mxCell id="hHnId6ll3xfoVTae1dIA-50" value="" style="shape=link;html=1;width=1;" parent="1" target="hHnId6ll3xfoVTae1dIA-24" edge="1">
          <mxGeometry width="100" relative="1" as="geometry">
            <mxPoint x="-179" y="320" as="sourcePoint" />
            <mxPoint x="-136.75" y="340" as="targetPoint" />
          </mxGeometry>
        </mxCell>
        <mxCell id="hHnId6ll3xfoVTae1dIA-55" value="" style="endArrow=none;html=1;entryX=-0.036;entryY=0.574;entryDx=0;entryDy=0;entryPerimeter=0;" parent="1" target="hHnId6ll3xfoVTae1dIA-14" edge="1">
          <mxGeometry width="50" height="50" relative="1" as="geometry">
            <mxPoint x="-674" y="287" as="sourcePoint" />
            <mxPoint x="-490" y="400" as="targetPoint" />
            <Array as="points">
              <mxPoint x="-500" y="287" />
            </Array>
          </mxGeometry>
        </mxCell>
        <mxCell id="hHnId6ll3xfoVTae1dIA-56" value="" style="swimlane;startSize=0;html=1;" parent="1" vertex="1">
          <mxGeometry x="-310" y="350" width="270" height="190" as="geometry" />
        </mxCell>
        <mxCell id="hHnId6ll3xfoVTae1dIA-72" value="DVWA" style="text;html=1;strokeColor=none;fillColor=none;align=center;verticalAlign=middle;whiteSpace=wrap;rounded=0;" parent="hHnId6ll3xfoVTae1dIA-56" vertex="1">
          <mxGeometry x="80" y="142" width="40" height="20" as="geometry" />
        </mxCell>
        <mxCell id="hHnId6ll3xfoVTae1dIA-74" value="web-3 10.0.0.10" style="text;html=1;strokeColor=none;fillColor=none;align=center;verticalAlign=middle;whiteSpace=wrap;rounded=0;" parent="hHnId6ll3xfoVTae1dIA-56" vertex="1">
          <mxGeometry x="189" y="110" width="40" height="20" as="geometry" />
        </mxCell>
        <mxCell id="hHnId6ll3xfoVTae1dIA-76" value="web-1 10.0.0.8" style="text;html=1;strokeColor=none;fillColor=none;align=center;verticalAlign=middle;whiteSpace=wrap;rounded=0;" parent="hHnId6ll3xfoVTae1dIA-56" vertex="1">
          <mxGeometry x="40" y="110" width="40" height="20" as="geometry" />
        </mxCell>
        <mxCell id="hHnId6ll3xfoVTae1dIA-79" value="Containers" style="text;html=1;strokeColor=none;fillColor=none;align=center;verticalAlign=middle;whiteSpace=wrap;rounded=0;" parent="hHnId6ll3xfoVTae1dIA-56" vertex="1">
          <mxGeometry x="151" y="142" width="40" height="20" as="geometry" />
        </mxCell>
        <mxCell id="hHnId6ll3xfoVTae1dIA-58" value="Workstation" style="text;html=1;strokeColor=none;fillColor=none;align=center;verticalAlign=middle;whiteSpace=wrap;rounded=0;" parent="1" vertex="1">
          <mxGeometry x="-870" y="580" width="230" height="20" as="geometry" />
        </mxCell>
        <mxCell id="hHnId6ll3xfoVTae1dIA-59" value="Internet" style="text;html=1;strokeColor=none;fillColor=none;align=center;verticalAlign=middle;whiteSpace=wrap;rounded=0;" parent="1" vertex="1">
          <mxGeometry x="-820" y="255" width="100" height="20" as="geometry" />
        </mxCell>
        <mxCell id="hHnId6ll3xfoVTae1dIA-60" value="Jump Box - VM&lt;br&gt;Ansible&lt;br&gt;52.150.17.160&lt;br&gt;10.0.0.4" style="text;html=1;strokeColor=none;fillColor=none;align=center;verticalAlign=middle;whiteSpace=wrap;rounded=0;" parent="1" vertex="1">
          <mxGeometry x="-460" y="530" width="130" height="50" as="geometry" />
        </mxCell>
        <mxCell id="hHnId6ll3xfoVTae1dIA-61" value="SSH&amp;nbsp;&lt;br&gt;&amp;nbsp; HTTP&lt;span style=&quot;white-space: pre&quot;&gt;	&lt;/span&gt;" style="text;html=1;align=center;verticalAlign=middle;resizable=0;points=[];autosize=1;strokeColor=none;" parent="1" vertex="1">
          <mxGeometry x="-760" y="350" width="70" height="30" as="geometry" />
        </mxCell>
        <mxCell id="hHnId6ll3xfoVTae1dIA-62" value="SSH&lt;br&gt;HTTP" style="text;html=1;strokeColor=none;fillColor=none;align=center;verticalAlign=middle;whiteSpace=wrap;rounded=0;" parent="1" vertex="1">
          <mxGeometry x="-400" y="340" width="40" height="20" as="geometry" />
        </mxCell>
        <mxCell id="hHnId6ll3xfoVTae1dIA-63" value="HTTP" style="text;html=1;strokeColor=none;fillColor=none;align=center;verticalAlign=middle;whiteSpace=wrap;rounded=0;" parent="1" vertex="1">
          <mxGeometry x="-350" y="270" width="40" height="25" as="geometry" />
        </mxCell>
        <mxCell id="hHnId6ll3xfoVTae1dIA-64" value="Load Balancer&lt;br&gt;13.82.104.249" style="text;html=1;strokeColor=none;fillColor=none;align=center;verticalAlign=middle;whiteSpace=wrap;rounded=0;" parent="1" vertex="1">
          <mxGeometry x="-228" y="260" width="88" height="20" as="geometry" />
        </mxCell>
        <mxCell id="hHnId6ll3xfoVTae1dIA-65" value="&lt;span style=&quot;color: rgb(50 , 49 , 48) ; font-family: &amp;#34;az_ea_font&amp;#34; , &amp;#34;segoe ui&amp;#34; , &amp;#34;az_font&amp;#34; , , , &amp;#34;blinkmacsystemfont&amp;#34; , &amp;#34;roboto&amp;#34; , &amp;#34;oxygen&amp;#34; , &amp;#34;ubuntu&amp;#34; , &amp;#34;cantarell&amp;#34; , &amp;#34;open sans&amp;#34; , &amp;#34;helvetica neue&amp;#34; , sans-serif ; font-size: 13px ; background-color: rgb(255 , 255 , 255)&quot;&gt;web-2 10.0.0.9&lt;/span&gt;" style="text;html=1;strokeColor=none;fillColor=none;align=center;verticalAlign=middle;whiteSpace=wrap;rounded=0;" parent="1" vertex="1">
          <mxGeometry x="-194.25" y="462" width="40" height="20" as="geometry" />
        </mxCell>
        <mxCell id="hHnId6ll3xfoVTae1dIA-66" value="" style="endArrow=none;html=1;" parent="1" target="hHnId6ll3xfoVTae1dIA-65" edge="1">
          <mxGeometry width="50" height="50" relative="1" as="geometry">
            <mxPoint x="-174" y="520" as="sourcePoint" />
            <mxPoint x="-173" y="462" as="targetPoint" />
          </mxGeometry>
        </mxCell>
        <mxCell id="hHnId6ll3xfoVTae1dIA-69" value="Virtual Subnet&amp;nbsp; 10.0.0.0./24" style="text;html=1;strokeColor=none;fillColor=none;align=center;verticalAlign=middle;whiteSpace=wrap;rounded=0;" parent="1" vertex="1">
          <mxGeometry x="-316.75" y="110" width="165" height="20" as="geometry" />
        </mxCell>
        <mxCell id="hHnId6ll3xfoVTae1dIA-71" value="SSH" style="text;html=1;strokeColor=none;fillColor=none;align=center;verticalAlign=middle;whiteSpace=wrap;rounded=0;" parent="1" vertex="1">
          <mxGeometry x="-354.25" y="492" width="40" height="20" as="geometry" />
        </mxCell>
        <mxCell id="hHnId6ll3xfoVTae1dIA-77" value="Load Balancer Backend Pool" style="text;html=1;strokeColor=none;fillColor=none;align=center;verticalAlign=middle;whiteSpace=wrap;rounded=0;" parent="1" vertex="1">
          <mxGeometry x="-265" y="540" width="180" height="20" as="geometry" />
        </mxCell>
        <mxCell id="Dnkpdrdmf2R13MR6Ekva-4" value="" style="pointerEvents=1;shadow=0;dashed=0;html=1;strokeColor=none;labelPosition=center;verticalLabelPosition=bottom;verticalAlign=top;outlineConnect=0;align=center;shape=mxgraph.office.servers.server_generic;fillColor=#CCCBCB;" parent="1" vertex="1">
          <mxGeometry x="-21.75" y="380" width="43.5" height="82" as="geometry" />
        </mxCell>
        <mxCell id="Dnkpdrdmf2R13MR6Ekva-7" value="" style="endArrow=none;html=1;" parent="1" edge="1">
          <mxGeometry width="50" height="50" relative="1" as="geometry">
            <mxPoint x="-120" y="520" as="sourcePoint" />
            <mxPoint x="2" y="480" as="targetPoint" />
            <Array as="points">
              <mxPoint x="2" y="520" />
            </Array>
          </mxGeometry>
        </mxCell>
        <mxCell id="Dnkpdrdmf2R13MR6Ekva-10" value="" style="endArrow=none;html=1;startArrow=none;" parent="1" target="Dnkpdrdmf2R13MR6Ekva-4" edge="1" source="Dnkpdrdmf2R13MR6Ekva-36">
          <mxGeometry width="50" height="50" relative="1" as="geometry">
            <mxPoint x="-290" y="310" as="sourcePoint" />
            <mxPoint x="-63.25" y="270" as="targetPoint" />
            <Array as="points">
              <mxPoint x="2" y="240" />
            </Array>
          </mxGeometry>
        </mxCell>
        <mxCell id="Dnkpdrdmf2R13MR6Ekva-22" value="" style="swimlane;startSize=0;" parent="1" vertex="1">
          <mxGeometry x="-30" y="350" width="83.5" height="190" as="geometry" />
        </mxCell>
        <mxCell id="Dnkpdrdmf2R13MR6Ekva-15" value="Virtual Subnet&lt;br&gt;10.1.0.0/24" style="text;html=1;strokeColor=none;fillColor=none;align=center;verticalAlign=middle;whiteSpace=wrap;rounded=0;" parent="Dnkpdrdmf2R13MR6Ekva-22" vertex="1">
          <mxGeometry width="83.5" height="30" as="geometry" />
        </mxCell>
        <mxCell id="Dnkpdrdmf2R13MR6Ekva-8" value="elk stack&lt;br&gt;&lt;span style=&quot;font-size: 13px ; color: rgb(50 , 49 , 48) ; font-family: &amp;#34;az_ea_font&amp;#34; , &amp;#34;segoe ui&amp;#34; , &amp;#34;az_font&amp;#34; , , , &amp;#34;blinkmacsystemfont&amp;#34; , &amp;#34;roboto&amp;#34; , &amp;#34;oxygen&amp;#34; , &amp;#34;ubuntu&amp;#34; , &amp;#34;cantarell&amp;#34; , &amp;#34;open sans&amp;#34; , &amp;#34;helvetica neue&amp;#34; , sans-serif ; background-color: rgb(255 , 255 , 255) ; outline: none&quot;&gt;&lt;span style=&quot;outline: none&quot;&gt;10.1.0.4&lt;/span&gt;&lt;/span&gt;" style="text;html=1;strokeColor=none;fillColor=none;align=center;verticalAlign=middle;whiteSpace=wrap;rounded=0;" parent="Dnkpdrdmf2R13MR6Ekva-22" vertex="1">
          <mxGeometry x="8.25" y="112" width="50" height="20" as="geometry" />
        </mxCell>
        <mxCell id="Dnkpdrdmf2R13MR6Ekva-24" value="" style="swimlane;startSize=0;" parent="1" vertex="1">
          <mxGeometry x="-540" y="100" width="670" height="590" as="geometry" />
        </mxCell>
        <mxCell id="Dnkpdrdmf2R13MR6Ekva-25" value="&lt;span style=&quot;font-family: &amp;#34;az_ea_font&amp;#34; , &amp;#34;segoe ui&amp;#34; , &amp;#34;az_font&amp;#34; , , , &amp;#34;blinkmacsystemfont&amp;#34; , &amp;#34;roboto&amp;#34; , &amp;#34;oxygen&amp;#34; , &amp;#34;ubuntu&amp;#34; , &amp;#34;cantarell&amp;#34; , &amp;#34;open sans&amp;#34; , &amp;#34;helvetica neue&amp;#34; , sans-serif ; background-color: rgb(255 , 255 , 255)&quot;&gt;&lt;font style=&quot;font-size: 12px&quot;&gt;Virtual Network&lt;br&gt;10.1.0.0/16&lt;/font&gt;&lt;/span&gt;" style="text;html=1;strokeColor=none;fillColor=none;align=center;verticalAlign=middle;whiteSpace=wrap;rounded=0;" parent="Dnkpdrdmf2R13MR6Ekva-24" vertex="1">
          <mxGeometry x="500" y="225" width="98.25" height="15" as="geometry" />
        </mxCell>
        <mxCell id="hHnId6ll3xfoVTae1dIA-36" value="Security Groups" style="text;html=1;strokeColor=none;fillColor=none;align=center;verticalAlign=middle;whiteSpace=wrap;rounded=0;" parent="Dnkpdrdmf2R13MR6Ekva-24" vertex="1">
          <mxGeometry x="100" y="100" width="40" height="20" as="geometry" />
        </mxCell>
        <mxCell id="hHnId6ll3xfoVTae1dIA-14" value="" style="fontColor=#0066CC;verticalAlign=top;verticalLabelPosition=bottom;labelPosition=center;align=center;html=1;outlineConnect=0;fillColor=#CCCCCC;strokeColor=#6881B3;gradientColor=none;gradientDirection=north;strokeWidth=2;shape=mxgraph.networks.firewall;" parent="Dnkpdrdmf2R13MR6Ekva-24" vertex="1">
          <mxGeometry x="80" y="130" width="100" height="100" as="geometry" />
        </mxCell>
        <mxCell id="0Tr1cYHkj0kC1HB36cl5-6" value="&lt;span style=&quot;overflow-wrap: break-word ; color: rgb(95 , 99 , 104) ; background-color: rgb(255 , 255 , 255)&quot;&gt;&lt;font style=&quot;font-size: 12px&quot;&gt;23.100.122.149&lt;/font&gt;&lt;/span&gt;" style="text;html=1;strokeColor=none;fillColor=none;align=center;verticalAlign=middle;whiteSpace=wrap;rounded=0;" vertex="1" parent="Dnkpdrdmf2R13MR6Ekva-24">
          <mxGeometry x="450" y="110" width="90" height="20" as="geometry" />
        </mxCell>
        <mxCell id="0Tr1cYHkj0kC1HB36cl5-1" value="" style="fontColor=#0066CC;verticalAlign=top;verticalLabelPosition=bottom;labelPosition=center;align=center;html=1;outlineConnect=0;fillColor=#CCCCCC;strokeColor=#6881B3;gradientColor=none;gradientDirection=north;strokeWidth=2;shape=mxgraph.networks.firewall;" vertex="1" parent="1">
          <mxGeometry x="-390" y="170" width="100" height="100" as="geometry" />
        </mxCell>
        <mxCell id="0Tr1cYHkj0kC1HB36cl5-2" value="" style="endArrow=none;html=1;entryX=-0.017;entryY=0.202;entryDx=0;entryDy=0;entryPerimeter=0;" edge="1" parent="1" target="0Tr1cYHkj0kC1HB36cl5-1">
          <mxGeometry width="50" height="50" relative="1" as="geometry">
            <mxPoint x="-520" y="290" as="sourcePoint" />
            <mxPoint x="-110" y="330" as="targetPoint" />
            <Array as="points">
              <mxPoint x="-520" y="190" />
            </Array>
          </mxGeometry>
        </mxCell>
        <mxCell id="0Tr1cYHkj0kC1HB36cl5-5" value="Text" style="text;html=1;strokeColor=none;fillColor=none;align=center;verticalAlign=middle;whiteSpace=wrap;rounded=0;" vertex="1" parent="1">
          <mxGeometry x="-150" y="350" width="40" height="20" as="geometry" />
        </mxCell>
        <mxCell id="Dnkpdrdmf2R13MR6Ekva-36" value="Kibana&lt;br&gt;Port 5601" style="text;html=1;strokeColor=none;fillColor=none;align=center;verticalAlign=middle;whiteSpace=wrap;rounded=0;" parent="1" vertex="1">
          <mxGeometry x="-60" y="220" width="60" height="40" as="geometry" />
        </mxCell>
        <mxCell id="0Tr1cYHkj0kC1HB36cl5-7" value="" style="endArrow=none;html=1;" edge="1" parent="1" source="0Tr1cYHkj0kC1HB36cl5-1" target="Dnkpdrdmf2R13MR6Ekva-36">
          <mxGeometry width="50" height="50" relative="1" as="geometry">
            <mxPoint x="-290" y="240" as="sourcePoint" />
            <mxPoint x="0.4530386740329959" y="380" as="targetPoint" />
            <Array as="points">
              <mxPoint x="-290" y="240" />
            </Array>
          </mxGeometry>
        </mxCell>
      </root>
    </mxGraphModel>
  </diagram>
</mxfile>
